<?xml version="1.0" standalone="no"?>
<!DOCTYPE svg PUBLIC "-//W3C//DTD SVG 20010904//EN"
 "http://www.w3.org/TR/2001/REC-SVG-20010904/DTD/svg10.dtd">
<svg version="1.0" xmlns="http://www.w3.org/2000/svg"
 width="512.000000pt" height="512.000000pt" viewBox="0 0 512.000000 512.000000"
 preserveAspectRatio="xMidYMid meet">
<metadata>
Created by potrace 1.11, written by Peter Selinger 2001-2013
</metadata>
<g transform="translate(0.000000,512.000000) scale(0.100000,-0.100000)"
fill="#000000" stroke="none">
<path d="M2660 5113 c-48 -15 -106 -52 -134 -88 -59 -73 -61 -86 -61 -366 l0
-255 26 -31 c25 -29 27 -39 27 -130 0 -105 -10 -147 -42 -177 -21 -18 -92 -66
-99 -66 -2 0 -4 19 -5 42 -6 136 -95 263 -232 331 -56 28 -76 32 -151 34 -128
3 -211 -30 -300 -119 -54 -54 -85 -111 -104 -191 l-11 -48 -44 84 c-42 81 -43
85 -26 103 29 29 15 76 -73 238 -120 222 -198 306 -361 387 -168 83 -406 86
-577 7 -304 -140 -466 -468 -393 -792 12 -51 89 -218 172 -371 41 -74 115
-214 211 -395 21 -41 56 -106 77 -145 20 -38 61 -115 90 -170 30 -55 75 -140
101 -188 74 -135 84 -122 -104 -121 -223 1 -278 -20 -329 -125 -20 -41 -22
-61 -22 -206 0 -102 5 -174 13 -198 28 -84 100 -134 202 -142 34 -3 63 -6 65
-7 1 -2 5 -32 9 -68 3 -36 10 -92 15 -125 5 -33 12 -92 15 -132 l7 -72 -260
-433 c-143 -238 -266 -446 -274 -463 -19 -38 -20 -119 -1 -165 54 -131 227
-174 340 -83 20 16 233 356 233 372 0 3 11 19 24 35 l23 30 8 -69 c10 -93 19
-113 60 -131 21 -8 35 -21 35 -32 0 -9 3 -41 6 -70 4 -34 3 -52 -4 -52 -6 0
-21 -10 -33 -22 -19 -21 -20 -30 -15 -111 12 -173 42 -253 120 -325 26 -24 68
-53 94 -65 l47 -22 1535 0 1535 0 67 33 c120 59 173 147 193 322 3 30 8 71 10
90 2 19 7 59 10 89 4 30 8 61 10 70 1 9 6 45 9 81 4 36 8 76 11 88 2 13 5 45
7 73 2 27 5 49 8 49 3 0 61 -92 129 -205 132 -221 158 -249 241 -271 40 -10
58 -10 100 1 53 14 68 23 109 65 53 56 70 163 36 231 -10 19 -133 225 -274
459 -159 265 -255 434 -255 450 1 25 12 131 19 180 2 14 7 54 10 90 8 77 13
101 20 108 2 3 28 6 57 7 86 3 156 45 195 116 16 30 18 58 18 219 0 178 -1
187 -24 223 -60 98 -93 110 -301 113 -91 1 -168 2 -172 3 -3 1 -6 68 -6 150 0
83 -4 156 -9 163 -4 8 -66 87 -137 176 l-129 162 -2 158 c-1 177 -8 200 -72
249 -36 28 -37 28 -202 30 -91 1 -174 2 -183 2 -10 1 -18 7 -18 15 0 19 -116
133 -185 181 -173 122 -171 118 -169 276 1 88 4 102 22 120 12 11 24 30 28 43
3 12 4 135 2 272 -3 281 -6 294 -87 367 -63 57 -116 68 -326 66 -99 -1 -187
-3 -195 -6z"/>
</g>
</svg>
